<?xml version="1.0" encoding="UTF-8" standalone="no"?>
<svg width="265px" height="52px" viewBox="0 0 265 52" version="1.1" xmlns="http://www.w3.org/2000/svg" xmlns:xlink="http://www.w3.org/1999/xlink">
    <!-- Generator: Sketch 3.8.1 (29687) - http://www.bohemiancoding.com/sketch -->
    <title>Group 3 Copy 6</title>
    <desc>Created with Sketch.</desc>
    <defs>
        <path d="M42,0 L6,0 L0,0 L6,10 L12,0 L6,0 L0,0 L0,28 C0,41.254834 10.745166,52 24,52 C37.254834,52 48,41.254834 48,28 L48,0 L42,0 L48,0 L42,10 L36,0 L42,0 Z M18,10 L24,0 L12,0 L18,10 Z M30,10 L36,0 L24,0 L30,10 Z" id="path-1"></path>
    </defs>
    <g id="Page-1" stroke="none" stroke-width="1" fill="none" fill-rule="evenodd">
        <g id="iPhone-6-Plus-Copy-6" transform="translate(-83.000000, -208.000000)">
            <g id="Group-3-Copy-6" transform="translate(83.000000, 208.000000)">
                <g id="Group-2-Copy-4">
                    <g id="Group-3-Copy">
                        <g id="Triangle-1-Copy-10-+-Triangle-1-Copy-9-+-Triangle-1-Copy-11-+-Triangle-1-Copy-8-+-Triangle-1-Copy-13-Mask">
                            <mask id="mask-2" fill="white">
                                <use xlink:href="#path-1"></use>
                            </mask>
                            <use id="Mask-Copy-3" fill="#FFBBBB" xlink:href="#path-1"></use>
                            <polygon id="Triangle-1-Copy-25" fill="#6C0022" mask="url(#mask-2)" points="24 0 55 52 -7 52"></polygon>
                            <polygon id="Triangle-1-Copy-26" fill="#B7033D" mask="url(#mask-2)" points="12 0 43 52 -19 52"></polygon>
                            <polygon id="Triangle-1-Copy-27" fill="#B7033D" mask="url(#mask-2)" points="36 0 67 52 5 52"></polygon>
                            <polygon id="Triangle-1-Copy-28" fill="#FF0052" mask="url(#mask-2)" points="3.90798505e-14 0 31 52 -31 52"></polygon>
                            <polygon id="Triangle-1-Copy-29" fill="#FF0052" mask="url(#mask-2)" points="48 0 79 52 17 52"></polygon>
                        </g>
                    </g>
                </g>
                <text id="Floralcrafts-Copy-2" font-family="KannadaMN, Kannada MN" font-size="43" font-weight="normal" fill="#283F76">
                    <tspan x="63" y="39">Floralcrafts</tspan>
                </text>
            </g>
        </g>
    </g>
</svg>