<?xml version="1.0" encoding="UTF-8" standalone="no"?>
<svg width="207px" height="93px" viewBox="0 0 207 93" version="1.1" xmlns="http://www.w3.org/2000/svg" xmlns:xlink="http://www.w3.org/1999/xlink">
    <!-- Generator: Sketch 3.8.3 (29802) - http://www.bohemiancoding.com/sketch -->
    <title>Artboard 9 Copy</title>
    <desc>Created with Sketch.</desc>
    <defs>
        <path d="M32.5617978,0 L4.65168539,0 L0,0 L4.65168539,7.69230769 L9.30337079,0 L4.65168539,0 L0,0 L0,21.5384615 C0,31.7344877 8.33052196,40 18.6067416,40 C28.8829612,40 37.2134831,31.7344877 37.2134831,21.5384615 L37.2134831,0 L32.5617978,0 L37.2134831,0 L32.5617978,7.69230769 L27.9101124,0 L32.5617978,0 Z M13.9550562,7.69230769 L18.6067416,0 L9.30337079,0 L13.9550562,7.69230769 Z M23.258427,7.69230769 L27.9101124,0 L18.6067416,0 L23.258427,7.69230769 Z" id="path-1"></path>
    </defs>
    <g id="Page-1" stroke="none" stroke-width="1" fill="none" fill-rule="evenodd">
        <g id="Artboard-9-Copy">
            <g id="Group-3-Copy-6" transform="translate(24.000000, 4.000000)">
                <g id="Group-2-Copy-4" transform="translate(61.000000, 0.000000)">
                    <g id="Group-3-Copy">
                        <g id="Triangle-1-Copy-10-+-Triangle-1-Copy-9-+-Triangle-1-Copy-11-+-Triangle-1-Copy-8-+-Triangle-1-Copy-13-Mask">
                            <mask id="mask-2" fill="white">
                                <use xlink:href="#path-1"></use>
                            </mask>
                            <use id="Mask-Copy-3" fill="#FFBBBB" xlink:href="#path-1"></use>
                            <polygon id="Triangle-1-Copy-25" fill="#6C0022" mask="url(#mask-2)" points="18.6067416 0 42.6404494 40 -5.42696629 40"></polygon>
                            <polygon id="Triangle-1-Copy-26" fill="#B7033D" mask="url(#mask-2)" points="9.30337079 0 33.3370787 40 -14.7303371 40"></polygon>
                            <polygon id="Triangle-1-Copy-27" fill="#B7033D" mask="url(#mask-2)" points="27.9101124 0 51.9438202 40 3.87640449 40"></polygon>
                            <polygon id="Triangle-1-Copy-28" fill="#FF0052" mask="url(#mask-2)" points="2.91322522e-13 0 24.0337079 40 -24.0337079 40"></polygon>
                            <polygon id="Triangle-1-Copy-29" fill="#FF0052" mask="url(#mask-2)" points="37.2134831 0 61.247191 40 13.1797753 40"></polygon>
                        </g>
                    </g>
                </g>
                <text id="Floralcrafts-Copy-2" font-family="KannadaMN, Kannada MN" font-size="33.0769231" font-weight="normal" fill="#283F76">
                    <tspan x="0" y="79">Floralcrafts</tspan>
                </text>
            </g>
        </g>
    </g>
</svg>